<svg width="128" height="40" viewBox="0 0 128 40" fill="none" xmlns="http://www.w3.org/2000/svg">
<g clip-path="url(#clip0_52_1106)">
<path d="M11.0437 15.032C10.6275 14.7546 10.136 14.6103 9.6349 14.6184C9.13234 14.6081 8.6385 14.7499 8.21885 15.0248C7.79502 15.3088 7.45735 15.7024 7.24235 16.1632C6.99926 16.6792 6.87679 17.2432 6.88411 17.8128C6.87668 18.3825 6.99915 18.9465 7.24235 19.4624C7.45742 19.9232 7.79507 20.3169 8.21885 20.6008C8.63841 20.8761 9.13226 21.0181 9.6349 21.008C10.136 21.0161 10.6275 20.8718 11.0437 20.5944C11.4707 20.3076 11.8133 19.913 12.0363 19.4512C12.2837 18.9405 12.4082 18.3796 12.4002 17.8128C12.4081 17.2461 12.2835 16.6852 12.0363 16.1744C11.8132 15.713 11.4706 15.3187 11.0437 15.032Z" fill="#FF003C"/>
<path d="M17.0265 40C16.7695 40.0003 16.515 39.9499 16.2777 39.8517C16.0404 39.7535 15.8251 39.6095 15.6443 39.428L4.9559 28.7912C3.95726 27.795 3.08608 26.6802 2.36209 25.472C1.65595 24.2867 1.09925 23.0196 0.704529 21.6992C-0.16913 18.7617 -0.231416 15.6448 0.524202 12.6752C1.46286 9.04858 3.58837 5.83509 6.56623 3.54046C9.54408 1.24583 13.2052 0.000334469 16.9734 1.95604e-07C17.7605 -0.000120071 18.5465 0.0552187 19.3257 0.1656C23.4005 0.742701 27.1255 2.77165 29.8071 5.87471C32.4887 8.97777 33.9442 12.9435 33.9027 17.0335C33.8611 21.1236 32.3253 25.0593 29.5812 28.1079C26.8371 31.1566 23.0717 33.1104 18.986 33.6056C18.7509 33.6144 18.5585 33.6208 18.4023 33.6208C17.4174 33.621 16.4349 33.5251 15.4688 33.3344C15.4423 33.3292 15.4153 33.3266 15.3883 33.3264C15.3006 33.3274 15.2159 33.3586 15.1488 33.4148C15.0816 33.471 15.0363 33.5486 15.0204 33.6344C14.9997 33.7196 15.0099 33.8093 15.0492 33.8878C15.0885 33.9662 15.1544 34.0283 15.2353 34.0632C16.4051 34.6388 17.6828 34.9657 18.9868 35.0232V38.0488C18.9871 38.3049 18.9366 38.5585 18.8383 38.7951C18.7399 39.0318 18.5956 39.2469 18.4136 39.4281C18.2315 39.6093 18.0153 39.7531 17.7773 39.8512C17.5393 39.9493 17.2842 39.9999 17.0265 40ZM9.63474 12.1648C8.65938 12.1528 7.70058 12.4158 6.86946 12.9232C6.05608 13.4239 5.39428 14.1341 4.95429 14.9784C4.50473 15.8566 4.2704 16.8279 4.2704 17.8132C4.2704 18.7985 4.50473 19.7698 4.95429 20.648C5.3942 21.4922 6.05604 22.2021 6.86946 22.7024C7.70046 23.2102 8.65929 23.4734 9.63474 23.4616C10.6104 23.4733 11.5695 23.21 12.4008 22.7024C13.2147 22.201 13.8783 21.4918 14.3224 20.6488C14.7774 19.7717 15.0147 18.7992 15.0147 17.8124C15.0147 16.8256 14.7774 15.8531 14.3224 14.976C13.877 14.1331 13.2123 13.4242 12.3976 12.9232C11.5671 12.4165 10.6092 12.1536 9.63474 12.1648ZM18.5706 18.9816H22.6062V22.072C22.6027 22.2374 22.6339 22.4017 22.6978 22.5544C22.7617 22.7072 22.8569 22.845 22.9773 22.9592C23.0922 23.0736 23.229 23.1639 23.3795 23.2249C23.5301 23.2859 23.6914 23.3163 23.854 23.3144C24.0236 23.3192 24.1924 23.2902 24.3506 23.2292C24.5087 23.1682 24.653 23.0764 24.775 22.9592C24.8954 22.845 24.9905 22.7071 25.0544 22.5544C25.1183 22.4016 25.1495 22.2374 25.1461 22.072V13.5536C25.1512 13.3891 25.1226 13.2252 25.062 13.072C25.0014 12.9188 24.91 12.7794 24.7935 12.6624C24.6736 12.5458 24.5312 12.4546 24.3748 12.3944C24.2185 12.3342 24.0514 12.3061 23.8838 12.312C23.5543 12.3096 23.2367 12.4347 22.9983 12.6608C22.8728 12.7736 22.7729 12.9116 22.7052 13.0656C22.6375 13.2197 22.6034 13.3863 22.6054 13.5544V16.6016H18.569V13.5536C18.5721 13.3883 18.5408 13.2242 18.477 13.0716C18.4133 12.9189 18.3186 12.781 18.1987 12.6664C18.0837 12.5523 17.9469 12.4621 17.7963 12.4012C17.6458 12.3404 17.4845 12.31 17.322 12.312C17.1523 12.3071 16.9833 12.336 16.825 12.397C16.6667 12.458 16.5223 12.5499 16.4002 12.6672C16.2799 12.7815 16.1848 12.9194 16.1209 13.0721C16.0571 13.2248 16.0258 13.389 16.0291 13.5544V22.072C16.0259 22.2353 16.0562 22.3975 16.118 22.5488C16.1799 22.7 16.2721 22.8372 16.389 22.952C16.5069 23.0696 16.6478 23.162 16.803 23.2236C16.9582 23.2853 17.1244 23.3148 17.2914 23.3104C17.6209 23.3125 17.9384 23.1875 18.1769 22.9616C18.3023 22.8488 18.4021 22.7108 18.4697 22.5567C18.5372 22.4026 18.5711 22.2361 18.569 22.068V18.9816H18.5706ZM27.8091 20.888C27.6706 20.8767 27.5313 20.8955 27.4008 20.9432C27.2704 20.9909 27.152 21.0662 27.0538 21.164C26.9557 21.2617 26.8801 21.3796 26.8325 21.5093C26.7848 21.6391 26.7662 21.7776 26.7779 21.9152V22.1248C26.7663 22.2624 26.785 22.4008 26.8327 22.5304C26.8805 22.66 26.956 22.7778 27.0542 22.8755C27.1523 22.9732 27.2707 23.0484 27.4011 23.0961C27.5314 23.1437 27.6707 23.1625 27.8091 23.1512H27.9701C28.1086 23.1626 28.248 23.1439 28.3785 23.0963C28.509 23.0488 28.6274 22.9735 28.7257 22.8758C28.8239 22.7781 28.8995 22.6603 28.9473 22.5306C28.995 22.4009 29.0138 22.2624 29.0022 22.1248V21.9152C29.0139 21.7775 28.9953 21.6389 28.9476 21.5091C28.8999 21.3793 28.8243 21.2614 28.726 21.1636C28.6278 21.0658 28.5092 20.9905 28.3787 20.9429C28.2481 20.8953 28.1087 20.8766 27.9701 20.888H27.8091ZM27.8824 12.312C27.6982 12.3077 27.5153 12.3435 27.3466 12.4171C27.1779 12.4906 27.0274 12.6 26.9059 12.7376C26.7841 12.8763 26.692 13.0382 26.6353 13.2134C26.5785 13.3887 26.5583 13.5735 26.5758 13.7568L27.0057 19.1816C27.0057 19.415 27.099 19.6388 27.2651 19.8039C27.4312 19.9689 27.6564 20.0616 27.8912 20.0616C28.1261 20.0616 28.3513 19.9689 28.5174 19.8039C28.6835 19.6388 28.7768 19.415 28.7768 19.1816L29.1906 13.764C29.2148 13.5796 29.1985 13.3921 29.1429 13.2146C29.0874 13.037 28.9937 12.8734 28.8686 12.7352C28.745 12.597 28.5925 12.4875 28.4216 12.4143C28.2508 12.3412 28.0659 12.3063 27.88 12.312H27.8824Z" fill="#FF003C"/>
<path d="M54.4461 14.392C54.4468 14.1536 54.4001 13.9174 54.3088 13.697C54.2174 13.4766 54.0831 13.2763 53.9136 13.1076C53.7441 12.939 53.5427 12.8052 53.321 12.7141C53.0993 12.623 52.8617 12.5763 52.6219 12.5768H48.9928V12.3704C49.0191 11.7269 49.1768 11.0954 49.4565 10.5144C49.5826 10.2752 49.7312 10.0483 49.9001 9.83677C50.0701 9.6262 50.2728 9.44392 50.5006 9.29677C50.7769 9.12134 51.0774 8.9866 51.3926 8.89677C51.7921 8.78462 52.2059 8.73073 52.6211 8.73677C52.8186 8.73406 53.0159 8.7477 53.2111 8.77757L53.2619 8.78477C53.5314 8.81361 53.8041 8.78442 54.0613 8.69917C54.3636 8.59544 54.6337 8.41564 54.8454 8.1773C55.057 7.93896 55.2029 7.6502 55.2688 7.33917C55.3329 7.01896 55.3098 6.68756 55.202 6.37917C55.0947 6.0742 54.9104 5.80175 54.6666 5.58797C54.3944 5.34922 54.0538 5.20122 53.6926 5.16477C53.3368 5.12564 52.979 5.10668 52.6211 5.10797C51.8191 5.09609 51.0197 5.20011 50.2478 5.41677C49.6047 5.60265 48.9925 5.88136 48.4309 6.24397C47.926 6.57181 47.4763 6.9768 47.0985 7.44397C46.7685 7.85694 46.4803 8.30122 46.238 8.77037C45.7029 9.87757 45.399 11.0809 45.3444 12.308V12.576H43.8953C43.4122 12.5775 42.9492 12.7687 42.6073 13.108C42.4431 13.2713 42.3114 13.464 42.2192 13.676C42.0999 13.9519 42.0513 14.253 42.0779 14.5522C42.1044 14.8514 42.2053 15.1394 42.3714 15.3904C42.5375 15.6413 42.7637 15.8474 43.0296 15.9901C43.2956 16.1327 43.5931 16.2076 43.8953 16.208H45.3444V30.528C45.3433 30.616 45.3344 30.7038 45.3178 30.7904C45.3081 30.842 45.2887 30.8914 45.2607 30.936C45.239 30.97 45.2102 30.9989 45.1761 31.0208C45.1277 31.0354 45.077 31.0414 45.0264 31.0384C44.8895 31.0384 44.8606 31.004 44.8356 30.9744C44.6771 30.7943 44.4835 30.6481 44.2666 30.5444C44.0496 30.4407 43.8138 30.3818 43.5733 30.3712C43.3339 30.3556 43.0938 30.3877 42.8671 30.4656C42.6404 30.5435 42.4316 30.6656 42.2531 30.8248C41.8911 31.146 41.6717 31.5966 41.6429 32.0781C41.6141 32.5595 41.7782 33.0327 42.0993 33.3944C42.4617 33.8088 42.9118 34.1384 43.4175 34.3597C43.9231 34.581 44.4717 34.6885 45.024 34.6744C45.6719 34.6911 46.3136 34.5447 46.8892 34.2488C47.3721 33.991 47.7934 33.6327 48.1242 33.1984C48.4283 32.7955 48.6553 32.3404 48.7939 31.856C48.92 31.431 48.9869 30.9909 48.9928 30.548V16.208H52.6219C52.8692 16.2098 53.1142 16.1608 53.3416 16.064C53.7783 15.8784 54.1248 15.5308 54.3076 15.0952C54.4017 14.8728 54.4498 14.634 54.4493 14.3928" fill="#FF003C"/>
<path d="M62.8426 27.9519C61.8023 27.9571 60.7719 27.7508 59.8149 27.3455C57.9505 26.5629 56.4677 25.0873 55.6826 23.2335C55.2807 22.2791 55.0737 21.2549 55.0737 20.2203C55.0737 19.1857 55.2807 18.1615 55.6826 17.2071C56.4675 15.353 57.9504 13.8771 59.8149 13.0943C60.7735 12.6943 61.8028 12.4883 62.8426 12.4883C63.8823 12.4883 64.9116 12.6943 65.8703 13.0943C67.735 13.8773 69.2179 15.3535 70.0025 17.2079C70.4045 18.1623 70.6115 19.1865 70.6115 20.2211C70.6115 21.2557 70.4045 22.2799 70.0025 23.2343C69.2175 25.088 67.7346 26.5636 65.8703 27.3463C64.9132 27.7511 63.8828 27.9572 62.8426 27.9519ZM62.8426 15.7279C62.2418 15.7235 61.6466 15.8422 61.0941 16.0767C60.0124 16.536 59.1526 17.3947 58.6959 18.4719C58.4637 19.0258 58.3441 19.6199 58.3441 20.2199C58.3441 20.8199 58.4637 21.414 58.6959 21.9679C59.1531 23.0456 60.0139 23.9045 61.0965 24.3631C61.6494 24.5954 62.244 24.7135 62.8442 24.7103C63.4476 24.7129 64.0453 24.5946 64.6016 24.3623C65.687 23.9063 66.5504 23.0472 67.0078 21.9679C67.2396 21.4139 67.359 20.8199 67.359 20.2199C67.359 19.6199 67.2396 19.0259 67.0078 18.4719C66.5507 17.3929 65.6876 16.534 64.6024 16.0783C64.0461 15.843 63.4471 15.7238 62.8426 15.7279Z" fill="#FF003C"/>
<path d="M80.4759 27.9519C79.4356 27.9571 78.4052 27.7508 77.4482 27.3455C75.5838 26.5629 74.101 25.0873 73.3159 23.2335C72.914 22.2791 72.707 21.2549 72.707 20.2203C72.707 19.1857 72.914 18.1615 73.3159 17.2071C74.1008 15.353 75.5837 13.8771 77.4482 13.0943C78.4068 12.6943 79.4362 12.4883 80.4759 12.4883C81.5156 12.4883 82.5449 12.6943 83.5036 13.0943C85.3684 13.8771 86.8514 15.3534 87.6358 17.2079C88.0424 18.1604 88.2492 19.1853 88.2436 20.2199C88.2491 21.2551 88.042 22.2805 87.635 23.2335C86.8502 25.0874 85.3673 26.563 83.5028 27.3455C82.546 27.7506 81.5159 27.957 80.4759 27.9519ZM80.4759 15.7279C79.8751 15.7235 79.2799 15.8423 78.7274 16.0767C77.6456 16.5358 76.7857 17.3946 76.3292 18.4719C76.0969 19.0258 75.9773 19.6199 75.9773 20.2199C75.9773 20.82 76.0969 21.4141 76.3292 21.9679C76.7863 23.0456 77.6471 23.9045 78.7298 24.3631C79.2827 24.5954 79.8773 24.7135 80.4775 24.7103C81.0809 24.7129 81.6786 24.5946 82.2349 24.3623C83.3202 23.9062 84.1836 23.0471 84.6411 21.9679C84.873 21.414 84.9924 20.8199 84.9924 20.2199C84.9924 19.6199 84.873 19.0259 84.6411 18.4719C84.1839 17.393 83.3208 16.5341 82.2357 16.0783C81.6794 15.8431 81.0804 15.7238 80.4759 15.7279Z" fill="#FF003C"/>
<path d="M97.8661 27.6776C96.8488 27.6825 95.8415 27.4779 94.9076 27.0768C93.0905 26.3063 91.6434 24.8676 90.8688 23.0616C90.1985 21.4947 90.0822 19.7483 90.5387 18.1072C90.7172 17.4776 90.977 16.8737 91.3115 16.3104C91.642 15.7563 92.0412 15.2456 92.4998 14.7904C92.9598 14.3326 93.4781 13.9364 94.0414 13.612C94.6099 13.2861 95.217 13.0319 95.8487 12.8552C96.5058 12.6723 97.1853 12.5805 97.8677 12.5824C98.5519 12.5745 99.2331 12.6728 99.8867 12.8736C100.442 13.0466 100.972 13.2908 101.464 13.6C101.734 13.772 101.988 13.9663 102.225 14.1808V6.88481C102.223 6.67513 102.263 6.46709 102.342 6.27267C102.421 6.07824 102.538 5.90129 102.686 5.75201C102.836 5.60168 103.014 5.48236 103.211 5.40094C103.408 5.31951 103.619 5.27759 103.832 5.27759C104.045 5.27759 104.256 5.31951 104.453 5.40094C104.649 5.48236 104.828 5.60168 104.978 5.75201C105.126 5.90112 105.244 6.07799 105.323 6.27241C105.403 6.46684 105.443 6.67497 105.441 6.88481V26.0096C105.443 26.2195 105.403 26.4276 105.323 26.6221C105.244 26.8165 105.126 26.9933 104.978 27.1424C104.828 27.2932 104.65 27.413 104.453 27.4947C104.256 27.5764 104.045 27.6185 103.832 27.6185C103.619 27.6185 103.407 27.5764 103.211 27.4947C103.014 27.413 102.836 27.2932 102.686 27.1424C102.428 26.8836 102.268 26.5447 102.232 26.1824C101.972 26.4169 101.69 26.6252 101.389 26.804C100.905 27.0864 100.384 27.3018 99.8417 27.444C99.1965 27.6087 98.5321 27.6872 97.8661 27.6776ZM97.8597 15.78C97.2784 15.7769 96.7028 15.8935 96.1691 16.1224C95.6482 16.3448 95.1737 16.662 94.77 17.0576C94.37 17.4542 94.05 17.9232 93.8273 18.4392C93.6002 18.9718 93.4832 19.5444 93.4832 20.1228C93.4832 20.7012 93.6002 21.2738 93.8273 21.8064C94.2761 22.8539 95.1148 23.6886 96.1683 24.136C96.7027 24.3626 97.2779 24.4786 97.8589 24.4768C98.4375 24.4793 99.0105 24.3636 99.5422 24.1368C100.592 23.6865 101.428 22.8521 101.877 21.8064C102.104 21.2738 102.221 20.7013 102.221 20.1228C102.221 19.5443 102.104 18.9718 101.877 18.4392C101.654 17.9232 101.335 17.4542 100.935 17.0576C100.532 16.6632 100.06 16.3462 99.5414 16.1224C99.0109 15.8933 98.4381 15.7767 97.8597 15.78Z" fill="#FF003C"/>
<path d="M109.519 13.8159C109.307 13.8141 109.096 13.8548 108.9 13.9356C108.704 14.0164 108.526 14.1357 108.377 14.2863C108.225 14.4346 108.106 14.6117 108.024 14.807C107.943 15.0023 107.902 15.2118 107.904 15.4231V26.0223C107.904 26.2332 107.946 26.4421 108.027 26.6371C108.108 26.832 108.227 27.0091 108.377 27.1584C108.527 27.3077 108.705 27.4261 108.901 27.5069C109.097 27.5878 109.307 27.6294 109.519 27.6295C109.734 27.6322 109.947 27.5919 110.145 27.5111C110.343 27.4303 110.524 27.3106 110.674 27.1591C110.826 27.0108 110.946 26.8337 111.027 26.6384C111.108 26.4431 111.149 26.2336 111.147 26.0223V15.4231C111.149 15.2118 111.108 15.0023 111.027 14.807C110.946 14.6117 110.826 14.4346 110.674 14.2863C110.524 14.1348 110.344 14.0151 110.145 13.9343C109.947 13.8535 109.734 13.8132 109.519 13.8159Z" fill="#FF003C"/>
<path d="M109.532 8.44317C109.28 8.43791 109.03 8.48253 108.796 8.57442C108.562 8.66631 108.349 8.80364 108.169 8.97837C107.986 9.15436 107.841 9.36597 107.744 9.59998C107.647 9.83398 107.6 10.0854 107.605 10.3384C107.606 10.5936 107.66 10.8459 107.766 11.0784C107.863 11.2965 107.998 11.496 108.164 11.668C108.34 11.8488 108.552 11.991 108.786 12.0856C109.024 12.1817 109.278 12.2306 109.534 12.2296C109.785 12.2322 110.033 12.1839 110.264 12.0876C110.495 11.9913 110.704 11.849 110.878 11.6696C111.046 11.4954 111.181 11.2917 111.275 11.0688C111.372 10.8378 111.423 10.5897 111.422 10.3392C111.429 10.0882 111.383 9.83864 111.289 9.60572C111.195 9.3728 111.054 9.16148 110.875 8.98477C110.7 8.80857 110.49 8.66968 110.259 8.57656C110.028 8.48345 109.781 8.43806 109.532 8.44317Z" fill="#FF003C"/>
<path d="M120.612 27.6384C119.608 27.6435 118.614 27.4422 117.692 27.0472C116.802 26.6683 115.994 26.122 115.313 25.4384C114.635 24.7511 114.095 23.9414 113.723 23.0528C113.334 22.1261 113.145 21.1286 113.168 20.1248C113.177 19.472 113.277 18.8235 113.467 18.1984C113.652 17.5866 113.915 17.0008 114.249 16.4552C114.581 15.9143 114.978 15.4162 115.433 14.972C115.889 14.5267 116.401 14.1412 116.956 13.8248C117.512 13.508 118.106 13.2606 118.723 13.088C119.328 12.9207 119.953 12.8367 120.581 12.8384H120.679C121.587 12.8432 122.486 13.0163 123.33 13.3488C124.971 13.9953 126.331 15.1964 127.17 16.7408C127.596 17.5206 127.873 18.3724 127.987 19.2528C128.018 19.4921 127.996 19.7353 127.924 19.9656C127.853 20.1884 127.737 20.3947 127.584 20.572C127.43 20.7508 127.24 20.8953 127.026 20.996C126.807 21.0996 126.567 21.153 126.323 21.152H116.027C116.116 21.6016 116.272 22.0353 116.492 22.4384C116.754 22.9272 117.101 23.3666 117.516 23.7368C117.932 24.1043 118.41 24.396 118.928 24.5984C119.464 24.8067 120.036 24.912 120.612 24.9088C121.289 24.9136 121.959 24.7639 122.569 24.4712C123.165 24.1851 123.696 23.7815 124.131 23.2848C124.246 23.1563 124.387 23.053 124.545 22.9816C124.661 22.9291 124.78 22.8855 124.903 22.8512C125.034 22.8197 125.169 22.8033 125.305 22.8024C125.566 22.7983 125.821 22.8737 126.038 23.0184C126.235 23.1507 126.395 23.3322 126.5 23.5448C126.602 23.7567 126.65 23.9908 126.637 24.2256C126.626 24.4868 126.525 24.7363 126.352 24.9336C125.674 25.7686 124.819 26.4451 123.848 26.9152C122.84 27.4008 121.732 27.6483 120.612 27.6384ZM120.622 15.5712C120.126 15.5692 119.634 15.6503 119.165 15.8112C118.708 15.9724 118.277 16.2 117.886 16.4864C117.497 16.7722 117.153 17.1141 116.866 17.5008C116.656 17.7835 116.477 18.0876 116.332 18.408H124.895C124.75 18.0825 124.57 17.7735 124.358 17.4864C124.076 17.1001 123.736 16.7584 123.351 16.4728C122.964 16.1866 122.533 15.9623 122.076 15.808C121.608 15.6512 121.117 15.5712 120.622 15.5712Z" fill="#FF003C"/>
</g>
<defs>
<clipPath id="clip0_52_1106">
<rect width="128" height="40" fill="white"/>
</clipPath>
</defs>
</svg>
